<svg width="167" height="47" viewBox="0 0 167 47" fill="none" xmlns="http://www.w3.org/2000/svg">
<path d="M65.5713 0L54.1455 46.4014H39.3237L34.8804 26.1841C34.7957 25.8032 34.6582 25.1579 34.4678 24.248C34.2985 23.3382 34.0975 22.3014 33.8647 21.1377C33.6532 19.974 33.4521 18.8314 33.2617 17.71C33.0924 16.5674 32.9655 15.6047 32.8809 14.8218C32.7962 15.6047 32.6587 16.5674 32.4683 17.71C32.2778 18.8314 32.0662 19.974 31.8335 21.1377C31.6219 22.3014 31.4103 23.3382 31.1987 24.248C31.0083 25.1579 30.8708 25.8032 30.7861 26.1841L26.311 46.4014H11.4893L0 0H12.0923L17.1387 23.2642C17.2656 23.8354 17.4349 24.6501 17.6465 25.708C17.8792 26.7448 18.112 27.8874 18.3447 29.1357C18.5986 30.363 18.8314 31.5479 19.043 32.6904C19.2546 33.833 19.4027 34.7852 19.4873 35.5469C19.6566 34.235 19.8787 32.7433 20.1538 31.0718C20.45 29.4002 20.7674 27.7075 21.106 25.9937C21.4657 24.2586 21.8042 22.6506 22.1216 21.1694C22.439 19.6883 22.714 18.4823 22.9468 17.5513L27.041 0H38.6572L42.6245 17.5513C42.8361 18.4611 43.1006 19.6672 43.418 21.1694C43.7565 22.6506 44.0951 24.2586 44.4336 25.9937C44.7933 27.7287 45.1213 29.4425 45.4175 31.1353C45.7137 32.8068 45.9359 34.2773 46.084 35.5469C46.2109 34.4889 46.4225 33.1559 46.7188 31.5479C47.015 29.9186 47.3112 28.3423 47.6074 26.8188C47.9248 25.2743 48.1681 24.1105 48.3374 23.3276L53.479 0H65.5713ZM133.11 0L121.685 46.4014H106.863L102.419 26.1841C102.335 25.8032 102.197 25.1579 102.007 24.248C101.838 23.3382 101.637 22.3014 101.404 21.1377C101.192 19.974 100.991 18.8314 100.801 17.71C100.632 16.5674 100.505 15.6047 100.42 14.8218C100.335 15.6047 100.198 16.5674 100.007 17.71C99.8169 18.8314 99.6053 19.974 99.3726 21.1377C99.161 22.3014 98.9494 23.3382 98.7378 24.248C98.5474 25.1579 98.4098 25.8032 98.3252 26.1841L93.8501 46.4014H79.0283L67.5391 0H79.6313L84.6777 23.2642C84.8047 23.8354 84.974 24.6501 85.1855 25.708C85.4183 26.7448 85.651 27.8874 85.8838 29.1357C86.1377 30.363 86.3704 31.5479 86.582 32.6904C86.7936 33.833 86.9417 34.7852 87.0264 35.5469C87.1956 34.235 87.4178 32.7433 87.6929 31.0718C87.9891 29.4002 88.3065 27.7075 88.645 25.9937C89.0047 24.2586 89.3433 22.6506 89.6606 21.1694C89.978 19.6883 90.2531 18.4823 90.4858 17.5513L94.5801 0H106.196L110.164 17.5513C110.375 18.4611 110.64 19.6672 110.957 21.1694C111.296 22.6506 111.634 24.2586 111.973 25.9937C112.332 27.7287 112.66 29.4425 112.957 31.1353C113.253 32.8068 113.475 34.2773 113.623 35.5469C113.75 34.4889 113.962 33.1559 114.258 31.5479C114.554 29.9186 114.85 28.3423 115.146 26.8188C115.464 25.2743 115.707 24.1105 115.876 23.3276L121.018 0H133.11ZM151.455 46.4014H139.109V0H166.531V10.061H151.455V18.916H165.356V28.9771H151.455V46.4014Z" fill="#0A2232"/>
</svg>
