<svg width="223" height="45" viewBox="0 0 223 45" fill="none" xmlns="http://www.w3.org/2000/svg">
<path d="M18.457 43.5059H11.543V15.9375C11.543 15.0195 11.5527 14.1016 11.5723 13.1836C11.5918 12.2656 11.6113 11.3672 11.6309 10.4883C11.6699 9.60938 11.7188 8.76953 11.7773 7.96875C11.3672 8.41797 10.8594 8.90625 10.2539 9.43359C9.66797 9.96094 9.04297 10.5078 8.37891 11.0742L3.45703 15L0 10.6348L12.7148 0.673828H18.457V43.5059ZM61.5527 22.0605C61.5527 25.5176 61.2793 28.6133 60.7324 31.3477C60.2051 34.0625 59.3652 36.3672 58.2129 38.2617C57.0605 40.1562 55.5566 41.6016 53.7012 42.5977C51.8457 43.5938 49.5996 44.0918 46.9629 44.0918C43.6621 44.0918 40.9375 43.2227 38.7891 41.4844C36.6406 39.7266 35.0488 37.207 34.0137 33.9258C32.9785 30.625 32.4609 26.6699 32.4609 22.0605C32.4609 17.4512 32.9297 13.5059 33.8672 10.2246C34.8242 6.92383 36.3672 4.39453 38.4961 2.63672C40.625 0.878906 43.4473 0 46.9629 0C50.2832 0 53.0176 0.878906 55.166 2.63672C57.334 4.375 58.9355 6.89453 59.9707 10.1953C61.0254 13.4766 61.5527 17.4316 61.5527 22.0605ZM39.4043 22.0605C39.4043 25.6738 39.6387 28.6914 40.1074 31.1133C40.5957 33.5352 41.3965 35.3516 42.5098 36.5625C43.623 37.7539 45.1074 38.3496 46.9629 38.3496C48.8184 38.3496 50.3027 37.7539 51.416 36.5625C52.5293 35.3711 53.3301 33.5645 53.8184 31.1426C54.3262 28.7207 54.5801 25.6934 54.5801 22.0605C54.5801 18.4668 54.3359 15.459 53.8477 13.0371C53.3594 10.6152 52.5586 8.79883 51.4453 7.58789C50.332 6.35742 48.8379 5.74219 46.9629 5.74219C45.0879 5.74219 43.5938 6.35742 42.4805 7.58789C41.3867 8.79883 40.5957 10.6152 40.1074 13.0371C39.6387 15.459 39.4043 18.4668 39.4043 22.0605ZM95.8887 22.0605C95.8887 25.5176 95.6152 28.6133 95.0684 31.3477C94.541 34.0625 93.7012 36.3672 92.5488 38.2617C91.3965 40.1562 89.8926 41.6016 88.0371 42.5977C86.1816 43.5938 83.9355 44.0918 81.2988 44.0918C77.998 44.0918 75.2734 43.2227 73.125 41.4844C70.9766 39.7266 69.3848 37.207 68.3496 33.9258C67.3145 30.625 66.7969 26.6699 66.7969 22.0605C66.7969 17.4512 67.2656 13.5059 68.2031 10.2246C69.1602 6.92383 70.7031 4.39453 72.832 2.63672C74.9609 0.878906 77.7832 0 81.2988 0C84.6191 0 87.3535 0.878906 89.502 2.63672C91.6699 4.375 93.2715 6.89453 94.3066 10.1953C95.3613 13.4766 95.8887 17.4316 95.8887 22.0605ZM73.7402 22.0605C73.7402 25.6738 73.9746 28.6914 74.4434 31.1133C74.9316 33.5352 75.7324 35.3516 76.8457 36.5625C77.959 37.7539 79.4434 38.3496 81.2988 38.3496C83.1543 38.3496 84.6387 37.7539 85.752 36.5625C86.8652 35.3711 87.666 33.5645 88.1543 31.1426C88.6621 28.7207 88.916 25.6934 88.916 22.0605C88.916 18.4668 88.6719 15.459 88.1836 13.0371C87.6953 10.6152 86.8945 8.79883 85.7812 7.58789C84.668 6.35742 83.1738 5.74219 81.2988 5.74219C79.4238 5.74219 77.9297 6.35742 76.8164 7.58789C75.7227 8.79883 74.9316 10.6152 74.4434 13.0371C73.9746 15.459 73.7402 18.4668 73.7402 22.0605ZM121.465 0.673828L105.498 43.5059H99.0527L115.02 0.673828H121.465ZM144.902 43.5059H137.988V15.9375C137.988 15.0195 137.998 14.1016 138.018 13.1836C138.037 12.2656 138.057 11.3672 138.076 10.4883C138.115 9.60938 138.164 8.76953 138.223 7.96875C137.812 8.41797 137.305 8.90625 136.699 9.43359C136.113 9.96094 135.488 10.5078 134.824 11.0742L129.902 15L126.445 10.6348L139.16 0.673828H144.902V43.5059ZM187.998 22.0605C187.998 25.5176 187.725 28.6133 187.178 31.3477C186.65 34.0625 185.811 36.3672 184.658 38.2617C183.506 40.1562 182.002 41.6016 180.146 42.5977C178.291 43.5938 176.045 44.0918 173.408 44.0918C170.107 44.0918 167.383 43.2227 165.234 41.4844C163.086 39.7266 161.494 37.207 160.459 33.9258C159.424 30.625 158.906 26.6699 158.906 22.0605C158.906 17.4512 159.375 13.5059 160.312 10.2246C161.27 6.92383 162.812 4.39453 164.941 2.63672C167.07 0.878906 169.893 0 173.408 0C176.729 0 179.463 0.878906 181.611 2.63672C183.779 4.375 185.381 6.89453 186.416 10.1953C187.471 13.4766 187.998 17.4316 187.998 22.0605ZM165.85 22.0605C165.85 25.6738 166.084 28.6914 166.553 31.1133C167.041 33.5352 167.842 35.3516 168.955 36.5625C170.068 37.7539 171.553 38.3496 173.408 38.3496C175.264 38.3496 176.748 37.7539 177.861 36.5625C178.975 35.3711 179.775 33.5645 180.264 31.1426C180.771 28.7207 181.025 25.6934 181.025 22.0605C181.025 18.4668 180.781 15.459 180.293 13.0371C179.805 10.6152 179.004 8.79883 177.891 7.58789C176.777 6.35742 175.283 5.74219 173.408 5.74219C171.533 5.74219 170.039 6.35742 168.926 7.58789C167.832 8.79883 167.041 10.6152 166.553 13.0371C166.084 15.459 165.85 18.4668 165.85 22.0605ZM222.334 22.0605C222.334 25.5176 222.061 28.6133 221.514 31.3477C220.986 34.0625 220.146 36.3672 218.994 38.2617C217.842 40.1562 216.338 41.6016 214.482 42.5977C212.627 43.5938 210.381 44.0918 207.744 44.0918C204.443 44.0918 201.719 43.2227 199.57 41.4844C197.422 39.7266 195.83 37.207 194.795 33.9258C193.76 30.625 193.242 26.6699 193.242 22.0605C193.242 17.4512 193.711 13.5059 194.648 10.2246C195.605 6.92383 197.148 4.39453 199.277 2.63672C201.406 0.878906 204.229 0 207.744 0C211.064 0 213.799 0.878906 215.947 2.63672C218.115 4.375 219.717 6.89453 220.752 10.1953C221.807 13.4766 222.334 17.4316 222.334 22.0605ZM200.186 22.0605C200.186 25.6738 200.42 28.6914 200.889 31.1133C201.377 33.5352 202.178 35.3516 203.291 36.5625C204.404 37.7539 205.889 38.3496 207.744 38.3496C209.6 38.3496 211.084 37.7539 212.197 36.5625C213.311 35.3711 214.111 33.5645 214.6 31.1426C215.107 28.7207 215.361 25.6934 215.361 22.0605C215.361 18.4668 215.117 15.459 214.629 13.0371C214.141 10.6152 213.34 8.79883 212.227 7.58789C211.113 6.35742 209.619 5.74219 207.744 5.74219C205.869 5.74219 204.375 6.35742 203.262 7.58789C202.168 8.79883 201.377 10.6152 200.889 13.0371C200.42 15.459 200.186 18.4668 200.186 22.0605Z" fill="#374A57"/>
</svg>
